<svg width="24" height="26" viewBox="0 0 24 26" fill="none" xmlns="http://www.w3.org/2000/svg">
<path opacity="0.2" d="M12 2.4375C10.0109 2.4375 8.10322 3.29352 6.6967 4.81726C5.29018 6.34099 4.5 8.40762 4.5 10.5625C4.5 17.875 12 23.5625 12 23.5625C12 23.5625 19.5 17.875 19.5 10.5625C19.5 8.40762 18.7098 6.34099 17.3033 4.81726C15.8968 3.29352 13.9891 2.4375 12 2.4375ZM12 13.8125C11.4067 13.8125 10.8266 13.6219 10.3333 13.2648C9.83994 12.9077 9.45542 12.4001 9.22836 11.8062C9.0013 11.2124 8.94189 10.5589 9.05764 9.92846C9.1734 9.29802 9.45912 8.71892 9.87868 8.2644C10.2982 7.80988 10.8328 7.50035 11.4147 7.37495C11.9967 7.24955 12.5999 7.31391 13.148 7.55989C13.6962 7.80588 14.1648 8.22244 14.4944 8.7569C14.8241 9.29136 15 9.91971 15 10.5625C15 11.4245 14.6839 12.2511 14.1213 12.8606C13.5587 13.4701 12.7956 13.8125 12 13.8125Z" fill="#EF5F4C"/>
<path d="M12 6.5C11.2583 6.5 10.5333 6.73826 9.91661 7.18465C9.29993 7.63105 8.81928 8.26552 8.53545 9.00785C8.25162 9.75017 8.17736 10.567 8.32205 11.3551C8.46675 12.1431 8.8239 12.867 9.34835 13.4351C9.8728 14.0033 10.541 14.3902 11.2684 14.5469C11.9958 14.7037 12.7498 14.6232 13.4351 14.3158C14.1203 14.0083 14.706 13.4876 15.118 12.8195C15.5301 12.1514 15.75 11.366 15.75 10.5625C15.75 9.48506 15.3549 8.45174 14.6517 7.68988C13.9484 6.92801 12.9946 6.5 12 6.5ZM12 13C11.555 13 11.12 12.857 10.75 12.5892C10.38 12.3214 10.0916 11.9407 9.92127 11.4953C9.75097 11.0499 9.70642 10.5598 9.79323 10.087C9.88005 9.61414 10.0943 9.17982 10.409 8.83893C10.7237 8.49804 11.1246 8.26589 11.561 8.17184C11.9975 8.07778 12.4499 8.12605 12.861 8.31054C13.2722 8.49503 13.6236 8.80745 13.8708 9.2083C14.118 9.60914 14.25 10.0804 14.25 10.5625C14.25 11.209 14.0129 11.829 13.591 12.2861C13.169 12.7432 12.5967 13 12 13ZM12 1.625C9.81273 1.62769 7.71575 2.57018 6.16911 4.2457C4.62247 5.92123 3.75248 8.19295 3.75 10.5625C3.75 13.7516 5.11031 17.1316 7.6875 20.3379C8.84552 21.7867 10.1489 23.0914 11.5734 24.2277C11.6995 24.3234 11.8498 24.3748 12.0037 24.3748C12.1577 24.3748 12.308 24.3234 12.4341 24.2277C13.856 23.0909 15.1568 21.7863 16.3125 20.3379C18.8859 17.1316 20.25 13.7516 20.25 10.5625C20.2475 8.19295 19.3775 5.92123 17.8309 4.2457C16.2843 2.57018 14.1873 1.62769 12 1.625ZM12 22.5469C10.4503 21.2266 5.25 16.377 5.25 10.5625C5.25 8.6231 5.96116 6.76314 7.22703 5.39178C8.4929 4.02042 10.2098 3.25 12 3.25C13.7902 3.25 15.5071 4.02042 16.773 5.39178C18.0388 6.76314 18.75 8.6231 18.75 10.5625C18.75 16.3749 13.5497 21.2266 12 22.5469Z" fill="#EF5F4C"/>
</svg>
